<svg width="920" height="330" viewBox="0 0 920 330" fill="none" xmlns="http://www.w3.org/2000/svg">
<path d="M626.237 190.376H638.001V200.536H626.237V220.143C626.237 222.163 626.801 223.678 627.93 224.688C629.059 225.698 630.812 226.203 633.188 226.203C634.08 226.203 634.911 226.114 635.684 225.936C636.456 225.758 637.229 225.549 638.001 225.312V235.472C637.229 235.888 636.129 236.214 634.703 236.451C633.337 236.689 631.792 236.808 630.069 236.808C624.247 236.808 619.909 235.412 617.058 232.619C614.265 229.768 612.869 225.46 612.869 219.698V200.536H604.402V190.376H612.869V180.217L626.237 175.226V190.376ZM451.745 189.486C456.795 189.486 461.192 190.466 464.935 192.426C468.737 194.387 471.678 197.12 473.758 200.625C475.837 204.131 476.877 208.23 476.877 212.924C476.877 217.618 475.808 221.776 473.669 225.401C471.589 228.965 468.648 231.758 464.846 233.779C461.103 235.739 456.736 236.719 451.745 236.719C446.755 236.719 442.358 235.739 438.556 233.779C434.813 231.758 431.871 228.965 429.732 225.401C427.653 221.776 426.613 217.618 426.613 212.924C426.613 208.23 427.653 204.131 429.732 200.625C431.871 197.12 434.813 194.387 438.556 192.426C442.358 190.465 446.755 189.486 451.745 189.486ZM536.41 189.486C541.104 189.486 545.174 190.436 548.62 192.337C552.066 194.238 554.739 196.882 556.641 200.269C558.542 203.655 559.492 207.636 559.492 212.211C559.492 213.162 559.463 214.053 559.403 214.885C559.344 215.657 559.255 216.4 559.136 217.113H525.426C525.818 219.908 526.685 222.106 528.033 223.707C529.994 225.965 532.905 227.094 536.767 227.094C538.905 227.094 540.747 226.738 542.292 226.025C543.837 225.312 544.995 224.153 545.768 222.549H558.334C556.849 226.946 554.294 230.421 550.67 232.976C547.105 235.471 542.5 236.719 536.855 236.719C531.806 236.719 527.409 235.739 523.666 233.779C519.923 231.758 517.012 228.965 514.933 225.401C512.913 221.836 511.902 217.736 511.902 213.102C511.902 208.408 512.913 204.309 514.933 200.804C517.012 197.239 519.893 194.476 523.577 192.515C527.261 190.495 531.538 189.486 536.41 189.486ZM582.801 189.486C588.802 189.486 593.585 190.703 597.149 193.139C600.714 195.515 602.675 198.843 603.031 203.12H591.089C590.851 201.576 590.02 200.417 588.594 199.645C587.168 198.813 585.147 198.398 582.533 198.398C580.157 198.398 578.375 198.754 577.187 199.467C576.058 200.121 575.493 201.071 575.493 202.319C575.493 203.388 575.968 204.249 576.919 204.903C577.87 205.497 579.444 206.032 581.643 206.507L589.841 208.2C594.416 209.151 597.863 210.934 600.18 213.548C602.556 216.103 603.744 219.133 603.744 222.638C603.744 227.094 601.992 230.57 598.486 233.066C595.04 235.502 590.138 236.719 583.781 236.719C577.127 236.719 571.839 235.382 567.918 232.708C563.997 230.035 561.857 226.351 561.501 221.657H573.443C573.74 223.677 574.75 225.223 576.473 226.292C578.255 227.302 580.692 227.807 583.781 227.807C586.573 227.807 588.593 227.421 589.841 226.649C591.148 225.817 591.802 224.658 591.802 223.173C591.802 222.044 591.416 221.182 590.644 220.588C589.931 219.935 588.593 219.401 586.633 218.985L579.325 217.469C573.919 216.34 569.938 214.647 567.383 212.389C564.828 210.072 563.551 207.101 563.551 203.477C563.551 199.08 565.244 195.664 568.631 193.228C572.017 190.733 576.741 189.486 582.801 189.486ZM728.996 189.486C735.531 189.486 740.522 190.941 743.968 193.852C747.414 196.763 749.137 200.952 749.137 206.418V226.47C749.137 227.955 749.226 229.471 749.404 231.016C749.642 232.501 749.998 234.106 750.474 235.828H737.105C736.749 234.521 736.482 233.124 736.304 231.639C736.226 230.662 736.175 229.582 736.148 228.4C734.884 230.843 733.185 232.756 731.046 234.135C728.372 235.858 725.104 236.719 721.242 236.719C716.727 236.719 713.133 235.59 710.459 233.332C707.785 231.015 706.448 227.956 706.448 224.154C706.448 219.935 708.023 216.548 711.172 213.993C714.38 211.379 718.836 209.686 724.54 208.913L735.769 207.33V204.992C735.769 203.151 735.145 201.724 733.897 200.714C732.709 199.645 730.926 199.111 728.55 199.111C726.292 199.111 724.481 199.497 723.114 200.269C721.807 201.041 720.945 202.17 720.529 203.656H707.785C708.379 199.556 710.488 196.169 714.112 193.495C717.737 190.822 722.698 189.486 728.996 189.486ZM771.125 197.648C772.027 195.538 773.48 193.796 775.492 192.426C778.344 190.465 781.909 189.486 786.187 189.486C790.286 189.486 793.821 190.465 796.792 192.426C799.822 194.327 802.139 197.031 803.743 200.536C805.407 204.042 806.238 208.171 806.238 212.924C806.238 217.736 805.377 221.925 803.654 225.49C801.931 229.054 799.525 231.818 796.436 233.779C793.346 235.739 789.692 236.719 785.474 236.719C781.136 236.719 777.601 235.709 774.868 233.689C772.987 232.267 771.65 230.478 770.857 228.321V235.828H757.757V171.661H771.125V197.648ZM829.703 189.486C835.704 189.486 840.487 190.703 844.052 193.139C847.617 195.515 849.577 198.843 849.934 203.12H837.991C837.753 201.576 836.922 200.417 835.496 199.645C834.07 198.813 832.05 198.398 829.436 198.398C827.059 198.398 825.277 198.754 824.089 199.467C822.96 200.121 822.396 201.071 822.396 202.319C822.396 203.388 822.871 204.249 823.821 204.903C824.772 205.497 826.347 206.032 828.545 206.507L836.744 208.2C841.319 209.151 844.765 210.934 847.082 213.548C849.458 216.103 850.646 219.133 850.646 222.638C850.646 227.094 848.894 230.57 845.389 233.066C841.943 235.502 837.041 236.719 830.684 236.719C824.029 236.719 818.742 235.382 814.82 232.708C810.899 230.035 808.76 226.351 808.403 221.657H820.346C820.643 223.678 821.653 225.223 823.376 226.292C825.158 227.302 827.594 227.807 830.684 227.807C833.476 227.807 835.496 227.421 836.744 226.649C838.051 225.817 838.704 224.658 838.704 223.173C838.704 222.044 838.318 221.182 837.546 220.588C836.833 219.935 835.496 219.4 833.535 218.985L826.228 217.469C820.821 216.34 816.84 214.647 814.285 212.389C811.731 210.072 810.453 207.101 810.453 203.477C810.453 199.08 812.147 195.664 815.533 193.228C818.92 190.733 823.643 189.486 829.703 189.486ZM424.953 182.177H393.404V200.448H422.903V210.963H393.404V235.828H379.68V171.661H424.953V182.177ZM508.867 189.486C509.996 189.486 510.828 189.604 511.362 189.842V202.319C511.065 202.2 510.649 202.14 510.114 202.14C509.58 202.081 508.926 202.051 508.154 202.051C503.877 202.051 500.727 202.824 498.707 204.368C496.687 205.854 495.677 208.439 495.677 212.122V235.828H482.309V190.376H495.41V198.71C496.472 196.114 497.927 194.049 499.776 192.515C502.212 190.495 505.243 189.486 508.867 189.486ZM672.508 225.312H703.344V235.828H658.783V171.661H672.508V225.312ZM726.768 216.489C724.391 216.845 722.639 217.499 721.51 218.449C720.381 219.4 719.816 220.707 719.816 222.37C719.816 223.856 720.351 224.985 721.421 225.757C722.49 226.529 723.916 226.916 725.698 226.916C728.491 226.916 730.867 226.173 732.828 224.688C734.789 223.143 735.768 221.361 735.769 219.341V215.109L726.768 216.489ZM451.745 200.001C448.596 200.001 445.923 201.13 443.725 203.388C441.586 205.646 440.516 208.795 440.516 212.835C440.516 215.627 441.021 218.034 442.031 220.054C443.041 222.014 444.378 223.53 446.041 224.599C447.764 225.668 449.666 226.203 451.745 226.203C453.824 226.203 455.696 225.668 457.359 224.599C459.082 223.53 460.449 222.014 461.459 220.054C462.469 218.034 462.975 215.627 462.975 212.835C462.975 208.736 461.875 205.586 459.677 203.388C457.538 201.13 454.894 200.001 451.745 200.001ZM781.552 200.18C778.462 200.18 775.908 201.309 773.888 203.567C771.927 205.765 770.947 208.943 770.947 213.102C770.947 217.261 771.927 220.469 773.888 222.727C775.908 224.925 778.522 226.025 781.73 226.025C784.879 226.025 787.434 224.896 789.395 222.638C791.355 220.38 792.336 217.172 792.336 213.013C792.336 208.854 791.326 205.675 789.306 203.477C787.345 201.279 784.76 200.18 781.552 200.18ZM536.232 199.111C532.727 199.111 529.994 200.299 528.033 202.675C526.884 204.112 526.084 205.984 525.63 208.289H545.971C545.742 205.415 544.874 203.246 543.361 201.783C541.638 200.001 539.262 199.111 536.232 199.111ZM479.656 111.333C486.192 111.333 491.183 112.789 494.629 115.7C498.075 118.612 499.798 122.8 499.798 128.266V148.319C499.798 149.804 499.886 151.319 500.064 152.864C500.302 154.349 500.659 155.953 501.135 157.676H487.767C487.41 156.369 487.142 154.973 486.964 153.488C486.886 152.511 486.835 151.431 486.809 150.249C485.544 152.692 483.845 154.604 481.706 155.983C479.032 157.706 475.764 158.568 471.902 158.568C467.387 158.568 463.793 157.438 461.119 155.181C458.446 152.864 457.108 149.804 457.108 146.001C457.108 141.783 458.683 138.396 461.832 135.841C465.04 133.227 469.497 131.534 475.2 130.762L486.43 129.178V126.84C486.43 124.998 485.805 123.573 484.558 122.563C483.369 121.493 481.587 120.958 479.211 120.958C476.953 120.958 475.141 121.344 473.774 122.116C472.467 122.889 471.605 124.018 471.189 125.503H458.445C459.039 121.404 461.149 118.018 464.773 115.344C468.398 112.67 473.358 111.333 479.656 111.333ZM527.96 111.333C531.941 111.333 535.505 112.076 538.654 113.561C541.863 114.987 544.477 116.978 546.497 119.532C548.576 122.087 549.914 125.088 550.508 128.533H537.585C536.931 126.335 535.743 124.671 534.021 123.542C532.357 122.413 530.395 121.85 528.138 121.85C525.999 121.85 524.127 122.384 522.523 123.453C520.979 124.523 519.791 126.038 518.959 127.998C518.127 129.959 517.711 132.277 517.711 134.95C517.711 137.624 518.127 139.941 518.959 141.902C519.791 143.862 520.979 145.377 522.523 146.447C524.128 147.516 525.999 148.051 528.138 148.051C530.395 148.051 532.357 147.487 534.021 146.358C535.743 145.229 536.931 143.565 537.585 141.366H550.508C549.914 144.812 548.577 147.814 546.497 150.368C544.477 152.923 541.863 154.943 538.654 156.428C535.505 157.854 531.941 158.568 527.96 158.568C523.207 158.568 519.018 157.557 515.394 155.537C511.769 153.517 508.917 150.724 506.838 147.159C504.818 143.595 503.809 139.525 503.809 134.95C503.809 130.376 504.818 126.305 506.838 122.74C508.917 119.176 511.769 116.384 515.394 114.364C519.018 112.343 523.207 111.333 527.96 111.333ZM409.535 93.509C415.239 93.509 419.843 94.9649 423.349 97.8762C426.854 100.787 428.607 104.738 428.607 109.729C428.607 112.878 427.864 115.581 426.379 117.839C424.894 120.097 422.903 121.82 420.408 123.008C419.777 123.309 419.126 123.57 418.457 123.794C419.506 124.123 420.513 124.544 421.478 125.058C424.21 126.484 426.379 128.504 427.983 131.118C429.587 133.673 430.39 136.703 430.39 140.208C430.39 143.714 429.557 146.803 427.894 149.477C426.289 152.091 424.002 154.111 421.031 155.537C418.12 156.963 414.674 157.676 410.693 157.676H379.68V93.509H409.535ZM450.16 157.676H436.792V93.509H450.16V157.676ZM569.13 130.366L584.458 112.225H599.876L580.38 133.725L600.768 157.676H584.904L569.13 137.957V157.676H555.762V93.509H569.13V130.366ZM477.428 138.337C475.051 138.694 473.299 139.347 472.17 140.297C471.041 141.248 470.477 142.555 470.477 144.219C470.477 145.704 471.012 146.833 472.081 147.606C473.15 148.378 474.576 148.764 476.358 148.764C479.151 148.764 481.528 148.021 483.488 146.535C485.449 144.991 486.43 143.209 486.43 141.189V136.957L477.428 138.337ZM393.404 147.872H407.485C410.456 147.872 412.684 147.07 414.169 145.466C415.714 143.802 416.486 141.515 416.486 138.604C416.486 135.633 415.655 133.287 413.991 131.564C412.387 129.841 410.07 128.979 407.04 128.979H393.404V147.872ZM393.404 119.176H406.327C409.119 119.176 411.228 118.522 412.654 117.215C414.14 115.849 414.883 113.858 414.883 111.244C414.883 108.63 414.169 106.67 412.743 105.363C411.377 103.996 409.327 103.313 406.594 103.313H393.404V119.176Z" fill="#F3F1E6"/>
<g clip-path="url(#clip0_4527_894)">
<path d="M261.543 150.599H232.962L204.381 110.334L115.223 235.802H143.865L204.38 150.601H232.961L172.447 235.802H201.167L261.543 150.599V190.864L229.727 235.809V259.171H155.849L155.847 259.174H127.266L127.268 259.171H69.925L204.381 69.8894L261.543 150.599ZM338.658 259.171H293.539V235.894L261.544 190.864V150.599L338.658 259.171Z" fill="#F3F1E6"/>
</g>
<defs>
<clipPath id="clip0_4527_894">
<rect width="268.733" height="191.952" fill="white" transform="translate(69.9255 68.5544)"/>
</clipPath>
</defs>
</svg>
